<svg width="700" height="700" viewBox="0 0 700 700" fill="none" xmlns="http://www.w3.org/2000/svg">
<g opacity="0.1" clip-path="url(#clip0_222_530)">
<path fill-rule="evenodd" clip-rule="evenodd" d="M595.474 104.526V0H583.944H549.569H150.323H110.56H104.526V104.526H0V110.668V150.431V549.569V583.944V595.474H104.526V700H110.668H150.431H549.569H583.944H595.474V595.474H700V583.944V549.569V150.431V110.668V104.526H595.474ZM549.569 45.7974V104.849C461.853 107.112 386.207 159.483 350 234.267C313.793 159.483 238.147 107.22 150.323 104.849V45.7974H549.569ZM549.246 150.647C545.905 246.121 468.642 323.384 373.168 326.724C376.509 231.358 453.879 153.987 549.246 150.647ZM326.724 326.724C231.25 323.384 153.987 246.121 150.647 150.647C246.121 153.987 323.491 231.358 326.724 326.724ZM45.7974 150.431H104.849C107.112 238.147 159.483 313.793 234.267 350C159.483 386.207 107.22 461.853 104.849 549.569H45.7974V150.431ZM326.724 373.276C323.384 468.75 246.121 546.013 150.647 549.353C153.987 453.879 231.358 376.509 326.724 373.276ZM150.323 654.203V595.151C238.039 592.888 313.685 540.517 349.892 465.733C386.207 540.517 461.853 592.78 549.569 595.151V654.203H150.323ZM373.168 373.276C468.642 376.616 545.905 453.879 549.246 549.353C453.879 546.013 376.509 468.642 373.168 373.276ZM654.203 549.569H595.151C592.888 461.853 540.517 386.207 465.733 350C540.517 313.793 592.78 238.147 595.151 150.431H654.203V549.569Z" fill="white"/>
</g>
<defs>
<clipPath id="clip0_222_530">
<rect width="700" height="700" fill="white"/>
</clipPath>
</defs>
</svg>
