<svg width="30" height="30" viewBox="0 0 30 30" fill="none" xmlns="http://www.w3.org/2000/svg">
<g clip-path="url(#clip0_94_3990)">
<path fill-rule="evenodd" clip-rule="evenodd" d="M25.5203 4.47968V0H25.0262H23.553H6.44243H4.7383H4.47968V4.47968H0V4.74292V6.44704V23.553V25.0262V25.5203H4.47968V30H4.74292H6.44704H23.553H25.0262H25.5203V25.5203H30V25.0262V23.553V6.44704V4.74292V4.47968H25.5203ZM23.553 1.96275V4.49353C19.7937 4.59052 16.5517 6.83498 15 10.04C13.4483 6.83498 10.2063 4.59514 6.44243 4.49353V1.96275H23.553ZM23.5391 6.45628C23.3959 10.548 20.0847 13.8593 15.9929 14.0025C16.1361 9.91533 19.452 6.59945 23.5391 6.45628ZM14.0025 14.0025C9.91071 13.8593 6.59945 10.548 6.45628 6.45628C10.548 6.59945 13.8639 9.91533 14.0025 14.0025ZM1.96275 6.44704H4.49353C4.59052 10.2063 6.83498 13.4483 10.04 15C6.83498 16.5517 4.59514 19.7937 4.49353 23.553H1.96275V6.44704ZM14.0025 15.9975C13.8593 20.0893 10.548 23.4006 6.45628 23.5437C6.59945 19.452 9.91533 16.1361 14.0025 15.9975ZM6.44243 28.0373V25.5065C10.2017 25.4095 13.4437 23.165 14.9954 19.96C16.5517 23.165 19.7937 25.4049 23.553 25.5065V28.0373H6.44243ZM15.9929 15.9975C20.0847 16.1407 23.3959 19.452 23.5391 23.5437C19.452 23.4006 16.1361 20.0847 15.9929 15.9975ZM28.0373 23.553H25.5065C25.4095 19.7937 23.165 16.5517 19.96 15C23.165 13.4483 25.4049 10.2063 25.5065 6.44704H28.0373V23.553Z" fill="#E7581E"/>
</g>
<defs>
<clipPath id="clip0_94_3990">
<rect width="30" height="30" fill="white"/>
</clipPath>
</defs>
</svg>
