<svg width="50" height="37" viewBox="0 0 50 37" fill="none" xmlns="http://www.w3.org/2000/svg">
<g clip-path="url(#clip0_222_480)">
<path fill-rule="evenodd" clip-rule="evenodd" d="M27 1.4H0V0H27C29.0435 0 30.7 1.65655 30.7 3.7V30.7C30.7 31.0866 30.3866 31.4 30 31.4H17V30H29.3V3.7C29.3 2.42975 28.2703 1.4 27 1.4ZM1.7 19.7V27.7C1.7 28.9703 2.72974 30 4 30H8V31.4H4C1.95655 31.4 0.3 29.7435 0.3 27.7V19.7H1.7Z" fill="#928F8E"/>
<path fill-rule="evenodd" clip-rule="evenodd" d="M14 5.4H0V4H14V5.4Z" fill="#D1CDCA"/>
<path fill-rule="evenodd" clip-rule="evenodd" d="M11 9.4H0V8H11V9.4Z" fill="#D1CDCA"/>
<path fill-rule="evenodd" clip-rule="evenodd" d="M9 13.4H0V12H9V13.4Z" fill="#D1CDCA"/>
<path fill-rule="evenodd" clip-rule="evenodd" d="M5 17.4H0V16H5V17.4Z" fill="#D1CDCA"/>
<path fill-rule="evenodd" clip-rule="evenodd" d="M29.3008 9.7C29.3008 8.20883 30.5096 7 32.0008 7H40.3952C41.6323 7 42.7876 7.61827 43.4738 8.64761L48.9114 16.804C49.4261 17.5761 49.7008 18.4832 49.7008 19.4111V28.7C49.7008 30.1912 48.492 31.4 47.0008 31.4H44.0008C43.6142 31.4 43.3008 31.0866 43.3008 30.7C43.3008 30.3134 43.6142 30 44.0008 30H47.0008C47.7188 30 48.3008 29.418 48.3008 28.7V19.4111C48.3008 18.7596 48.1079 18.1227 47.7465 17.5806L42.3089 9.42419C41.8824 8.78433 41.1642 8.4 40.3952 8.4H32.0008C31.2828 8.4 30.7008 8.98203 30.7008 9.7V30H34.7508C35.1374 30 35.4508 30.3134 35.4508 30.7C35.4508 31.0866 35.1374 31.4 34.7508 31.4H30.0008C29.6142 31.4 29.3008 31.0866 29.3008 30.7V9.7Z" fill="#928F8E"/>
<path fill-rule="evenodd" clip-rule="evenodd" d="M37.0008 7C37.3874 7 37.7008 7.3134 37.7008 7.7V18.7C37.7008 19.418 38.2828 20 39.0008 20H49.0008C49.3874 20 49.7008 20.3134 49.7008 20.7C49.7008 21.0866 49.3874 21.4 49.0008 21.4H39.0008C37.5096 21.4 36.3008 20.1912 36.3008 18.7V7.7C36.3008 7.3134 36.6142 7 37.0008 7Z" fill="#928F8E"/>
<path fill-rule="evenodd" clip-rule="evenodd" d="M12.5008 27.4C10.4021 27.4 8.70078 29.1013 8.70078 31.2C8.70078 33.2987 10.4021 35 12.5008 35C14.5995 35 16.3008 33.2987 16.3008 31.2C16.3008 29.1013 14.5995 27.4 12.5008 27.4ZM7.30078 31.2C7.30078 28.3281 9.6289 26 12.5008 26C15.3727 26 17.7008 28.3281 17.7008 31.2C17.7008 34.0719 15.3727 36.4 12.5008 36.4C9.6289 36.4 7.30078 34.0719 7.30078 31.2Z" fill="#928F8E"/>
<path fill-rule="evenodd" clip-rule="evenodd" d="M39.5008 27.4C37.4021 27.4 35.7008 29.1013 35.7008 31.2C35.7008 33.2987 37.4021 35 39.5008 35C41.5995 35 43.3008 33.2987 43.3008 31.2C43.3008 29.1013 41.5995 27.4 39.5008 27.4ZM34.3008 31.2C34.3008 28.3281 36.6289 26 39.5008 26C42.3727 26 44.7008 28.3281 44.7008 31.2C44.7008 34.0719 42.3727 36.4 39.5008 36.4C36.6289 36.4 34.3008 34.0719 34.3008 31.2Z" fill="#928F8E"/>
</g>
<defs>
<clipPath id="clip0_222_480">
<rect width="50" height="37" fill="white"/>
</clipPath>
</defs>
</svg>
