<svg width="36" height="47" viewBox="0 0 36 47" fill="none" xmlns="http://www.w3.org/2000/svg">
<g clip-path="url(#clip0_222_490)">
<path fill-rule="evenodd" clip-rule="evenodd" d="M22.4844 0.379203C23.5966 -0.516534 25.2507 0.275161 25.2507 1.7032V18.1226H33.7C34.6389 18.1226 35.4 18.8837 35.4 19.8226V44.6138C35.4 45.5527 34.6389 46.3138 33.7 46.3138H4.7C2.10426 46.3138 0 44.2096 0 41.6138V21.6943C0 19.6666 0.918268 17.748 2.49747 16.4762L22.4844 0.379203ZM28.9254 19.5226H25.2507V29.9435C25.2507 30.178 25.1333 30.3969 24.938 30.5266L10.637 40.0236L28.9254 34.4792V19.5226ZM30.3254 19.5226H33.7C33.8657 19.5226 34 19.6569 34 19.8226V44.6138C34 44.7795 33.8657 44.9138 33.7 44.9138H4.7C2.87746 44.9138 1.4 43.4364 1.4 41.6138V21.6943C1.4 20.0903 2.12639 18.5726 3.37561 17.5666L23.3626 1.46955C23.5588 1.31149 23.8507 1.45119 23.8507 1.7032V29.5681L5.89484 41.4922C5.60554 41.6844 5.50084 42.0596 5.64885 42.3737C5.79686 42.6879 6.15283 42.846 6.48518 42.7453L29.8285 35.6683C30.1236 35.5789 30.3254 35.3068 30.3254 34.9985V19.5226Z" fill="#928F8E"/>
<path fill-rule="evenodd" clip-rule="evenodd" d="M15.4127 19.7238C15.3533 20.209 15.4853 20.5523 15.6997 20.7489C15.9141 20.9455 16.2676 21.0473 16.7458 20.9461C17.2224 20.8453 17.7619 20.5484 18.2193 20.0495C18.6767 19.5507 18.9258 18.9875 18.985 18.504C19.0444 18.0188 18.9124 17.6754 18.698 17.4788C18.4836 17.2823 18.1301 17.1805 17.6519 17.2816C17.1753 17.3824 16.6358 17.6794 16.1784 18.1782C15.721 18.6771 15.4719 19.2403 15.4127 19.7238ZM14.023 19.5537C14.1216 18.7488 14.5146 17.9212 15.1465 17.2321C15.7783 16.543 16.5688 16.0797 17.3621 15.9119C18.1538 15.7445 19.01 15.8655 19.6442 16.4469C20.2783 17.0284 20.473 17.8709 20.3746 18.6741C20.2761 19.4789 19.8831 20.3066 19.2512 20.9957C18.6194 21.6848 17.8288 22.148 17.0355 22.3158C16.2439 22.4833 15.3877 22.3623 14.7535 21.7808C14.1194 21.1994 13.9247 20.3569 14.023 19.5537Z" fill="#D1CDCA"/>
</g>
<defs>
<clipPath id="clip0_222_490">
<rect width="36" height="47" fill="white"/>
</clipPath>
</defs>
</svg>
