<svg width="193" height="46" viewBox="0 0 193 46" fill="none" xmlns="http://www.w3.org/2000/svg">
<g clip-path="url(#clip0_237_1380)">
<path fill-rule="evenodd" clip-rule="evenodd" d="M171.563 7.37045C179.04 7.37045 185.16 13.5767 185.16 21.1667V34.7393H179.374V21.1667C179.374 16.8083 175.859 13.2453 171.567 13.2453C167.272 13.2453 163.76 16.8124 163.76 21.1667V34.7393H157.974V21.1667C157.966 13.5767 164.083 7.37045 171.563 7.37045Z" fill="#3B186C"/>
<path fill-rule="evenodd" clip-rule="evenodd" d="M56.5031 21.0466C56.5031 28.6324 50.3865 34.8428 42.9061 34.8428H29.3376V34.7392V28.9722V13.1251V7.25443H35.1235H42.9061C50.3824 7.25443 56.5031 13.4607 56.5031 21.0466ZM35.1235 28.9722H42.9061C47.1893 28.9722 50.7131 25.3967 50.7131 21.0507C50.7131 16.7047 47.1893 13.1292 42.9061 13.1292H35.1235V28.9722Z" fill="#3B186C"/>
<path fill-rule="evenodd" clip-rule="evenodd" d="M65.5393 7.88004V34.7393H59.7534V13.0878L65.5393 7.88004Z" fill="#3B186C"/>
<path fill-rule="evenodd" clip-rule="evenodd" d="M74.2978 0V10.2706L71.758 12.8434L71.7335 12.8185L68.5078 16.0915V5.20778L74.2978 0ZM74.2978 31.6734V34.7393H68.5119V25.8028L74.2978 31.6734Z" fill="#3B186C"/>
<path fill-rule="evenodd" clip-rule="evenodd" d="M141.225 7.37045C148.436 7.37045 154.312 13.1665 154.581 20.4168L154.594 34.7393H148.808V32.1002C148.808 28.3839 148.799 24.622 148.808 20.9513C148.808 16.6923 145.431 13.2411 141.229 13.2411C137.044 13.2411 133.651 16.684 133.651 20.9306C133.651 25.1772 137.044 28.62 141.229 28.62C143.973 28.62 145.913 26.9752 145.913 26.9752V33.6331C144.455 34.1882 142.879 34.4907 141.229 34.4907C133.847 34.4907 127.865 28.4212 127.865 20.9306C127.861 13.44 133.843 7.37045 141.225 7.37045Z" fill="#3B186C"/>
<path fill-rule="evenodd" clip-rule="evenodd" d="M100.679 7.37045C107.89 7.37045 113.766 13.1665 114.035 20.4168L114.047 34.7393H108.262V32.1002C108.262 28.3839 108.253 24.622 108.262 20.9513C108.262 16.6923 104.885 13.2411 100.683 13.2411C96.4979 13.2411 93.1047 16.684 93.1047 20.9306C93.1047 25.1772 96.4979 28.62 100.683 28.62C103.427 28.62 105.367 26.9752 105.367 26.9752V33.6331C103.909 34.1882 102.329 34.4907 100.683 34.4907C93.3007 34.4907 87.3188 28.4212 87.3188 20.9306C87.3148 13.44 93.2966 7.37045 100.679 7.37045Z" fill="#3B186C"/>
<path fill-rule="evenodd" clip-rule="evenodd" d="M123.761 0V29.9955L127.073 34.7393H123.761H118.755H117.976V5.20778L123.761 0Z" fill="#3B186C"/>
<path fill-rule="evenodd" clip-rule="evenodd" d="M71.7333 16.1412L68.5852 19.3397V22.5546L80.5939 34.7393H90.0628L76.4943 20.972L90.0464 7.21716H80.5775L71.7578 16.1661L71.7333 16.1412Z" fill="#E7581E"/>
<path fill-rule="evenodd" clip-rule="evenodd" d="M0 11.5963H5.47147C10.2325 11.5963 14.1319 15.5488 14.1319 20.3837V21.6846C14.1319 26.5153 10.2365 30.4719 5.47147 30.4719H0V30.0286V28.707V13.3571V11.8283V11.5963ZM1.73535 28.707H5.47147C9.28108 28.707 12.3966 25.5459 12.3966 21.6804V20.3837C12.3966 16.5182 9.28108 13.3571 5.47147 13.3571H1.73535V28.707Z" fill="#E7581E"/>
<path fill-rule="evenodd" clip-rule="evenodd" d="M26.5245 11.5963H21.053C16.292 11.5963 12.3926 15.5488 12.3926 20.3837V21.6846C12.3926 26.5153 16.2879 30.4719 21.053 30.4719H26.5245V30.0286V28.707V13.3571V11.8283V11.5963ZM24.7891 28.707H21.053C17.2434 28.707 14.1279 25.5459 14.1279 21.6804V20.3837C14.1279 16.5182 17.2434 13.3571 21.053 13.3571H24.7891V28.707Z" fill="#E7581E"/>
<path fill-rule="evenodd" clip-rule="evenodd" d="M3.96069 34.4865V28.9349C3.96069 24.1041 7.85605 20.1475 12.6211 20.1475H13.9033C18.6642 20.1475 22.5637 24.1 22.5637 28.9349V34.4865H22.1268H20.8243H5.69605H4.18935H3.96069ZM20.8243 32.7257V28.9349C20.8243 25.0694 17.7088 21.9083 13.8992 21.9083H12.6171C8.80744 21.9083 5.69196 25.0694 5.69196 28.9349V32.7257H20.8243Z" fill="#E7581E"/>
<path fill-rule="evenodd" clip-rule="evenodd" d="M3.96069 7.57761V13.1293C3.96069 17.96 7.85605 21.9166 12.6211 21.9166H13.9033C18.6642 21.9166 22.5637 17.9642 22.5637 13.1293V7.57761H22.1268H20.8243H5.69605H4.18935H3.96069ZM20.8243 9.33839V13.1293C20.8243 16.9947 17.7088 20.1558 13.8992 20.1558H12.6171C8.80744 20.1558 5.69196 16.9947 5.69196 13.1293V9.33839H20.8243Z" fill="#E7581E"/>
<path fill-rule="evenodd" clip-rule="evenodd" d="M188.692 2.05908C191.073 2.05908 193 4.01459 193 6.42997C193 8.84536 191.073 10.8009 188.692 10.8009C186.312 10.8009 184.385 8.84536 184.385 6.42997C184.385 4.01873 186.316 2.05908 188.692 2.05908ZM188.692 2.46924C190.848 2.46924 192.6 4.24246 192.6 6.43412C192.6 8.62163 190.852 10.399 188.692 10.399C186.536 10.399 184.785 8.62578 184.785 6.43412C184.789 4.24246 186.536 2.46924 188.692 2.46924Z" fill="#3B186C"/>
<path d="M187.112 8.68378V4.39575H188.986C189.362 4.39575 189.652 4.43304 189.844 4.51176C190.04 4.59047 190.195 4.72305 190.313 4.91777C190.432 5.1125 190.489 5.32793 190.489 5.56409C190.489 5.87067 190.391 6.12339 190.199 6.33469C190.003 6.54184 189.705 6.67442 189.301 6.73242C189.448 6.80285 189.562 6.87742 189.64 6.94786C189.803 7.10115 189.958 7.29173 190.101 7.51959L190.832 8.68793H190.134L189.574 7.79303C189.411 7.53616 189.276 7.3373 189.17 7.20058C189.064 7.06386 188.97 6.96857 188.884 6.91471C188.802 6.86085 188.717 6.82356 188.631 6.80285C188.57 6.79042 188.464 6.78213 188.321 6.78213H187.671V8.68793H187.112V8.68378ZM187.671 6.28911H188.872C189.129 6.28911 189.325 6.26011 189.472 6.20625C189.615 6.15239 189.725 6.06539 189.799 5.94939C189.872 5.83338 189.909 5.70495 189.909 5.56409C189.909 5.36108 189.836 5.19536 189.693 5.06278C189.55 4.9302 189.321 4.86806 189.007 4.86806H187.671V6.28911Z" fill="#3B186C"/>
<path d="M46.9117 45.4655C47.3118 45.4655 47.663 45.3454 47.9733 45.1051C48.2795 44.8648 48.4347 44.5334 48.4347 44.1066H48.99L49.0023 44.1356C49.0145 44.6659 48.8104 45.1051 48.3857 45.4655C47.9611 45.8218 47.4711 46 46.9117 46C46.1604 46 45.5765 45.7307 45.1559 45.1962C44.7394 44.6618 44.5271 43.9741 44.5271 43.1413V42.9176C44.5271 42.089 44.7353 41.4012 45.1518 40.8668C45.5683 40.3323 46.1522 40.063 46.9035 40.063C47.5078 40.063 48.0101 40.2495 48.4143 40.6182C48.8144 40.9869 49.0104 41.4758 48.9982 42.0765L48.9859 42.1056H48.4306C48.4306 41.6457 48.2836 41.2811 47.9896 41.0077C47.6916 40.7342 47.3322 40.5975 46.9035 40.5975C46.3115 40.5975 45.8745 40.8171 45.5846 41.2562C45.2947 41.6995 45.1518 42.2506 45.1518 42.9134V43.1372C45.1518 43.8083 45.2947 44.3676 45.5846 44.8068C45.8745 45.246 46.3155 45.4655 46.9117 45.4655ZM60.1535 45.8881C60.1126 45.6893 60.084 45.5153 60.0677 45.3703C60.0514 45.2253 60.0391 45.0761 60.0391 44.927C59.8472 45.2377 59.5736 45.4945 59.2225 45.6976C58.8713 45.9006 58.4712 46 58.0139 46.0041C57.4626 46.0041 57.0339 45.855 56.7277 45.5567C56.4255 45.2584 56.2703 44.8565 56.2703 44.3428C56.2703 43.829 56.4908 43.4189 56.9318 43.0999C57.3728 42.7809 57.9485 42.6234 58.6508 42.6234H60.035V41.915C60.035 41.5048 59.9085 41.1858 59.6512 40.9538C59.394 40.7218 59.0347 40.6016 58.5692 40.6016C58.1404 40.6016 57.7975 40.7094 57.5361 40.9206C57.2748 41.1319 57.1401 41.3971 57.1401 41.7202H56.5603L56.548 41.6912C56.5276 41.2604 56.7113 40.8834 57.0911 40.5561C57.4749 40.2329 57.9771 40.0672 58.5978 40.0672C59.2143 40.0672 59.7125 40.2288 60.0881 40.5478C60.4638 40.8709 60.6516 41.3308 60.6516 41.9274V44.7405C60.6516 44.9435 60.6639 45.1382 60.6843 45.3288C60.7088 45.5194 60.7455 45.7058 60.7945 45.8923H60.1535V45.8881ZM58.0792 45.4407C58.5569 45.4407 58.9734 45.3247 59.3246 45.0927C59.6757 44.8607 59.9125 44.5665 60.0391 44.2019V43.1082H58.6468C58.1404 43.1082 57.7199 43.2325 57.3891 43.4769C57.0584 43.7213 56.8951 44.0155 56.8951 44.3594C56.8951 44.6825 57.0012 44.9477 57.2095 45.1424C57.4218 45.3413 57.7117 45.4407 58.0792 45.4407ZM72.8522 45.8881H72.2274V43.2656H69.1895V45.8881H68.5648V40.1666H69.1895V42.7311H72.2274V40.1666H72.8522V45.8881ZM84.9547 40.7052H82.9009V45.8881H82.2762V40.7052H80.2999V40.1666H84.9547V40.7052ZM94.4441 46C93.7132 46 93.1211 45.7348 92.6679 45.2128C92.2106 44.6908 91.986 44.0196 91.986 43.1952V42.9052C91.986 42.0807 92.2187 41.4012 92.676 40.8626C93.1374 40.3282 93.7091 40.0589 94.391 40.0589C95.077 40.0589 95.6037 40.2826 95.9793 40.7301C96.3509 41.1775 96.5387 41.7783 96.5387 42.5323V43.0253H92.6148V43.1993C92.6148 43.8498 92.7781 44.3925 93.1007 44.8234C93.4233 45.2543 93.8765 45.4697 94.4481 45.4697C94.7911 45.4697 95.1096 45.4117 95.3954 45.2957C95.6854 45.1838 95.9222 45.0264 96.1141 44.8317L96.3795 45.2667C96.1835 45.478 95.9222 45.6561 95.5996 45.7928C95.277 45.9296 94.8891 46 94.4441 46ZM94.3869 40.6016C93.9051 40.6016 93.5131 40.7756 93.2028 41.1237C92.8924 41.4758 92.7128 41.915 92.6597 42.4536L92.676 42.4826H95.9058V42.35C95.9058 41.8445 95.7752 41.4261 95.5139 41.0947C95.2525 40.7674 94.8769 40.6016 94.3869 40.6016ZM105.808 42.5033L107.335 40.1666H108.074L106.163 42.9756L108.155 45.8881H107.425L105.82 43.4479L104.215 45.8881H103.476L105.473 42.9756L103.558 40.1666H104.293L105.808 42.5033ZM119.792 45.8881H119.168V43.2656H116.13V45.8881H115.505V40.1666H116.13V42.7311H119.168V40.1666H119.792V45.8881ZM131.356 40.1666H131.981V45.8881H131.356V41.2189L131.327 41.2065L128.314 45.8881H127.689V40.1666H128.314V44.8317L128.343 44.8358L131.356 40.1666ZM141.233 43.2656H140.519V45.8881H139.89V40.1666H140.519V42.7063H141.217L143.442 40.1666H144.194L144.202 40.1956L141.772 42.9466L144.455 45.8591L144.439 45.8923H143.663L141.233 43.2656ZM155.312 45.8881C155.271 45.6893 155.243 45.5153 155.226 45.3703C155.21 45.2253 155.198 45.0761 155.198 44.927C155.006 45.2377 154.732 45.4945 154.381 45.6976C154.03 45.9006 153.63 46 153.173 46.0041C152.621 46.0041 152.193 45.855 151.886 45.5567C151.584 45.2584 151.429 44.8565 151.429 44.3428C151.429 43.829 151.65 43.4189 152.09 43.0999C152.531 42.7809 153.107 42.6234 153.81 42.6234H155.194V41.915C155.194 41.5048 155.067 41.1858 154.81 40.9538C154.553 40.7218 154.193 40.6016 153.728 40.6016C153.299 40.6016 152.956 40.7094 152.695 40.9206C152.433 41.1319 152.299 41.3971 152.299 41.7202H151.719L151.707 41.6912C151.686 41.2604 151.87 40.8834 152.25 40.5561C152.634 40.2329 153.136 40.0672 153.756 40.0672C154.373 40.0672 154.871 40.2288 155.247 40.5478C155.622 40.8709 155.81 41.3308 155.81 41.9274V44.7405C155.81 44.9435 155.823 45.1382 155.843 45.3288C155.867 45.5194 155.904 45.7058 155.953 45.8923H155.312V45.8881ZM153.238 45.4407C153.716 45.4407 154.132 45.3247 154.483 45.0927C154.834 44.8607 155.071 44.5665 155.198 44.2019V43.1082H153.805C153.299 43.1082 152.879 43.2325 152.548 43.4769C152.217 43.7213 152.054 44.0155 152.054 44.3594C152.054 44.6825 152.16 44.9477 152.368 45.1424C152.58 45.3413 152.87 45.4407 153.238 45.4407Z" fill="#3B186C"/>
</g>
<defs>
<clipPath id="clip0_237_1380">
<rect width="193" height="46" fill="white"/>
</clipPath>
</defs>
</svg>
