<svg width="65" height="65" viewBox="0 0 65 65" fill="none" xmlns="http://www.w3.org/2000/svg">
<g clip-path="url(#clip0_94_3962)">
<path d="M32.5 65C50.4493 65 65 50.4493 65 32.5C65 14.5507 50.4493 0 32.5 0C14.5507 0 0 14.5507 0 32.5C0 50.4493 14.5507 65 32.5 65Z" fill="#E7581E"/>
<path d="M42.5901 30.2144L28.9323 20.8491C28.3191 20.4031 27.6502 20.1801 27.1485 20.1801C26.0893 20.1801 25.4761 21.0163 25.4761 22.3542V42.5901C25.4761 43.9837 26.0893 44.7642 27.0927 44.7642C27.6502 44.7642 28.2634 44.5412 28.8766 44.0952L42.5344 34.7299C43.4263 34.1166 43.928 33.3362 43.928 32.4443C43.928 31.5523 43.4821 30.8276 42.5901 30.2144Z" fill="white"/>
</g>
<defs>
<clipPath id="clip0_94_3962">
<rect width="65" height="65" fill="white"/>
</clipPath>
</defs>
</svg>
