<svg width="20" height="20" viewBox="0 0 20 20" fill="none" xmlns="http://www.w3.org/2000/svg">
<g clip-path="url(#clip0_208_1902)">
<path d="M17.08 2.90547C15.2 1.03483 12.7 0 10.04 0C4.56 0 0.08 4.43781 0.08 9.91045C0.08 11.6617 0.54 13.3532 1.4 14.8657L0 20L5.28 18.6269C6.74 19.4229 8.38 19.8408 10.04 19.8408C15.52 19.8408 20 15.403 20 9.93035C20 7.26368 18.96 4.77612 17.08 2.90547ZM10.04 18.1493C8.56 18.1493 7.1 17.7512 5.82 16.995L5.52 16.8159L2.4 17.6517L3.24 14.607L3.04 14.2886C2.22 12.9751 1.78 11.4627 1.78 9.91045C1.76 5.37313 5.48 1.67164 10.04 1.67164C12.26 1.67164 14.32 2.52736 15.9 4.0796C17.46 5.63184 18.32 7.70149 18.32 9.91045C18.32 14.4478 14.6 18.1493 10.04 18.1493ZM14.58 11.9801C14.34 11.8607 13.1 11.2637 12.88 11.1841C12.66 11.1045 12.48 11.0647 12.32 11.3035C12.16 11.5423 11.68 12.0995 11.54 12.2786C11.4 12.4378 11.24 12.4577 11 12.3383C10.76 12.2189 9.94 11.9602 9 11.1045C8.26 10.4478 7.76 9.63184 7.62 9.39303C7.48 9.15423 7.6 9.01493 7.72 8.89552C7.84 8.77612 7.96 8.59702 8.1 8.45771C8.22 8.31841 8.26 8.21891 8.34 8.0398C8.42 7.8806 8.38 7.72139 8.32 7.60199C8.26 7.48259 7.76 6.26866 7.56 5.77114C7.36 5.29353 7.16 5.35323 7 5.35323C6.86 5.35323 6.68 5.35323 6.52 5.35323C6.36 5.35323 6.08 5.41294 5.86 5.67164C5.64 5.91045 4.98 6.52736 4.98 7.74129C4.98 8.95522 5.88 10.1294 6 10.3085C6.12 10.4677 7.76 12.9751 10.26 14.0498C10.86 14.3085 11.32 14.4478 11.68 14.5672C12.28 14.7463 12.82 14.7264 13.24 14.6667C13.72 14.5871 14.72 14.0697 14.92 13.4925C15.12 12.9154 15.12 12.4179 15.06 12.3184C15 12.1592 14.84 12.0995 14.58 11.9801Z" fill="white"/>
</g>
<defs>
<clipPath id="clip0_208_1902">
<rect width="20" height="20" fill="white"/>
</clipPath>
</defs>
</svg>
